Coordinates
version=1
nRows=14
nColumns=36
inDegrees=yes

Units are S.I. units (second, meters, Newtons, ...)
If the header above contains a line with 'inDegrees', this indicates whether rotational values are in degrees (yes) or radians (no).

endheader
time	pelvis_tilt	pelvis_list	pelvis_rotation	pelvis_tx	pelvis_ty	pelvis_tz	hip_flexion_r	hip_adduction_r	hip_rotation_r	knee_angle_r	knee_angle_r_beta	ankle_angle_r	subtalar_angle_r	mtp_angle_r	hip_flexion_l	hip_adduction_l	hip_rotation_l	knee_angle_l	knee_angle_l_beta	ankle_angle_l	subtalar_angle_l	mtp_angle_l	lumbar_extension	lumbar_bending	lumbar_rotation	arm_flex_r	arm_add_r	arm_rot_r	elbow_flex_r	pro_sup_r	arm_flex_l	arm_add_l	arm_rot_l	elbow_flex_l	pro_sup_l
      1.55000000	    -21.08154815	      1.75799157	     -3.67005820	     -0.28291735	      0.59251098	     -0.57412598	     89.10334392	     -2.00399267	      9.75768988	    110.42537059	      1.92728629	     37.54774809	    -11.46915725	     -7.50039463	     92.79653574	     -8.16059274	      2.16422402	    107.87076497	      1.88270002	     34.83054591	    -11.77356183	     -7.50039463	    -25.51750109	      0.47315923	     -0.07668901	    -12.10186928	    -14.86699138	    -27.91435924	     98.05834265	     99.99928313	    -19.57653837	    -17.59167289	    -29.74665655	     89.34749548	    105.58897178
      1.56000000	    -21.30612820	      2.21714981	     -3.35270662	     -0.28167256	      0.58746872	     -0.57492830	     89.76011938	     -2.27021128	     10.41974664	    111.33879922	      1.94322863	     38.08875133	    -11.83556128	     -7.50039088	     93.44554956	     -7.57635275	      1.88657641	    108.64435880	      1.89620177	     34.97466718	    -11.92989946	     -7.50039088	    -26.21421575	     -0.02981675	     -0.16234962	     -8.39279292	    -13.80942584	    -26.47424355	     97.77400810	    100.53091723	    -14.12882454	    -16.94017846	    -27.70421940	     89.74029786	    105.78325500
      1.57000000	    -21.64218909	      2.62962014	     -3.16092297	     -0.28030516	      0.58296503	     -0.57507318	     90.41474589	     -2.24764622	     11.14932581	    112.10432662	      1.95658961	     38.64283841	    -11.83233150	     -7.50030486	     94.13340235	     -7.26489812	      1.63741841	    109.31592965	      1.90792290	     35.02236708	    -12.12327537	     -7.50030486	    -26.83681605	     -0.58377907	      0.51405164	     -5.14088538	    -12.67304010	    -26.03682954	     97.55085795	    108.13574809	     -7.93359343	    -16.46640944	    -24.52010924	     89.63159528	    107.08023749
      1.58000000	    -21.90916305	      2.97073359	     -3.00542223	     -0.27888686	      0.57936837	     -0.57499198	     90.91447494	     -2.09783310	     11.81578310	    112.75953290	      1.96802511	     38.93303931	    -12.03468015	     -7.50030190	     94.62821078	     -6.97251580	      1.48175741	    109.85236112	      1.91728539	     35.12284248	    -12.20312050	     -7.50030190	    -27.57428822	     -1.26490252	      0.36141169	     -0.90652158	    -11.95601946	    -23.83304369	     97.00301677	    108.21694554	     -2.42697897	    -15.53008909	    -22.47000542	     90.52206412	    107.26445619
      1.59000000	    -22.14813132	      3.35114913	     -2.87814528	     -0.27764195	      0.57628828	     -0.57475655	     91.43533228	     -1.90944781	     12.46691057	    113.37235253	      1.97872083	     39.04627142	    -12.23469852	     -7.50029835	     94.99115213	     -6.59610065	      1.37620324	    110.26384202	      1.92446709	     35.27934955	    -12.36462844	     -7.50029835	    -28.10975861	     -1.98628117	      0.18848131	      3.63813487	    -11.26950754	    -21.42790784	     96.28823088	    108.31929385	      3.23367166	    -14.77868563	    -19.70605266	     90.93626495	    107.37282277
      1.60000000	    -22.34316342	      3.69932687	     -2.77031217	     -0.27659147	      0.57355182	     -0.57436146	     91.94663044	     -1.63043916	     13.09199009	    113.99960505	      1.98966845	     38.97787504	    -12.51291328	     -7.50029451	     95.33681937	     -6.31553452	      1.28430313	    110.65919008	      1.93136721	     35.29116539	    -12.41375130	     -7.50029451	    -28.50237878	     -2.62601320	      0.12797270	      8.23577539	    -10.69131138	    -18.86920563	     95.60749961	    108.45593546	      9.19981222	    -14.01301267	    -16.52940609	     90.86088624	    107.41942506
      1.61000000	    -22.45005204	      4.02846653	     -2.73909143	     -0.27559129	      0.57154488	     -0.57388308	     92.31481565	     -1.34149351	     13.58754774	    114.50869482	      1.99855375	     38.84775741	    -12.83172843	     -7.50029179	     95.55877921	     -6.15542557	      1.22097598	    110.98907815	      1.93712485	     35.16347450	    -12.29715527	     -7.50029179	    -28.95543154	     -3.35239049	      0.11908982	     12.88468672	    -10.28599512	    -16.08748049	     95.14334915	    108.60630082	     15.30372036	    -13.05018283	    -13.42323608	     90.82617770	    107.56374813
      1.62000000	    -22.57281339	      4.34009753	     -2.65651242	     -0.27456859	      0.57019430	     -0.57364217	     92.57058221	     -1.07543187	     14.11596899	    114.87735160	      2.00498802	     38.68227297	    -13.22638051	     -7.50028906	     95.72142773	     -5.94721783	      1.08080136	    111.19341924	      1.94069127	     35.16196885	    -12.29339707	     -7.50028906	    -29.38377189	     -3.97888174	     -0.06461703	     17.63651065	     -9.89680636	    -13.03192507	     94.98529515	    108.78559140	     21.38077494	    -12.24183642	     -9.92674220	     90.43488579	    107.75969375
      1.63000000	    -22.74522483	      4.60538180	     -2.47586831	     -0.27352925	      0.56949870	     -0.57394910	     92.75892592	     -1.02236432	     14.61432658	    115.06983503	      2.00834749	     38.50166222	    -13.49381589	     -7.50028683	     95.83092163	     -5.52134094	      0.97127060	    111.21249918	      1.94102428	     35.19556480	    -12.40784445	     -7.50028683	    -29.73954284	     -4.46768551	     -0.36358065	     22.52412258	     -9.45975044	    -10.05189899	     95.07865334	    108.96823885	     27.38301096	    -11.13321742	     -6.49388729	     90.06287640	    107.94378212
      1.64000000	    -22.77537661	      4.88345576	     -2.41288184	     -0.27230204	      0.56939385	     -0.57414898	     92.78220755	     -0.94215312	     15.08612887	    115.24976806	      2.01148791	     38.28921626	    -13.70839104	     -7.50028435	     95.76221795	     -5.21399345	      0.82363396	    111.30038425	      1.94255816	     35.14907115	    -12.58851177	     -7.50028435	    -30.06023326	     -5.00399705	     -0.60310122	     27.61056163	     -8.93446248	     -6.96575232	     95.18468561	    109.15665764	     33.43748825	     -9.86322831	     -2.74656921	     89.25787680	    108.09992905
      1.65000000	    -22.99278400	      5.07114321	     -2.42668366	     -0.27113215	      0.56957850	     -0.57391080	     92.92689146	     -0.73886369	     15.38839153	    115.27983609	      2.01201270	     37.98224448	    -14.16329467	     -7.50027588	     95.85388483	     -5.13460655	      0.76605217	    111.29511310	      1.94246616	     34.93015727	    -12.88546500	     -7.50027588	    -30.08011059	     -5.57740230	     -0.41346074	     32.43667663	     -8.36481417	     -4.59719188	     95.71141219	    109.33553345	     39.70005308	     -8.28556017	      1.44875489	     88.02236606	    108.28723248
      1.66000000	    -23.10286628	      5.08957893	     -2.42682482	     -0.26990231	      0.57067903	     -0.57370919	     92.75971252	     -0.56411013	     15.50860782	    115.13231569	      2.00943798	     37.92767102	    -14.30714336	     -7.50027243	     95.76354311	     -5.04860539	      0.89402728	    111.19877709	      1.94078478	     34.70207097	    -12.77035871	     -7.50027243	    -30.25859028	     -5.86414002	     -0.74850608	     37.83858180	     -7.53684180	     -1.49665782	     96.18738221	    109.52585572	     45.32018587	     -6.79793950	      4.42360497	     88.05795682	    108.51813317
      1.67000000	    -23.34484638	      5.13063418	     -2.34150085	     -0.26867367	      0.57201584	     -0.57376794	     92.63936783	     -0.47167275	     15.69103855	    114.87542153	      2.00495434	     37.89996460	    -14.40648065	     -7.50026981	     95.74319134	     -4.88500661	      0.93316017	    110.97645298	      1.93690450	     34.49637952	    -12.66277357	     -7.50026981	    -30.16763882	     -6.05403774	     -1.19872780	     43.22388564	     -6.72484443	      1.64971073	     96.87268620	    109.73084396	     50.74719742	     -5.39542560	      7.34631104	     88.28975188	    108.73551786
      1.68000000	    -23.64437238	      5.14854741	     -2.26934873	     -0.26739857	      0.57361719	     -0.57377318	     92.49498572	     -0.33888498	     15.88629114	    114.54901475	      1.99925746	     37.91827252	    -14.53872425	     -7.50026656	     95.77146086	     -4.86614893	      0.88438844	    110.71157216	      1.93228145	     34.35227199	    -12.64009335	     -7.50026656	    -29.89603953	     -6.23599088	     -1.67849679	     48.61686911	     -5.92547947	      4.65843855	     97.71089190	    109.94610476	     56.11917813	     -4.08821474	     10.23427987	     88.73164199	    108.92508343
